<?xml version="1.0" standalone="no"?><svg xmlns:xlink="http://www.w3.org/1999/xlink" xmlns="http://www.w3.org/2000/svg" viewBox="0 0 1000 157.8849372384937" preserveAspectRatio="xMaxYMax slice"><g transform="scale(1.0460251046025104)"><rect x="0" y="0" width="956" height="150.94736842105263" fill="#ffffff"/><circle cx="12.575000000000001" cy="12.575000000000001" r="2.515" fill="#000000"/><circle cx="37.735" cy="12.575000000000001" r="2.515" fill="#000000"/><circle cx="62.895" cy="12.575000000000001" r="2.515" fill="#000000"/><circle cx="88.055" cy="12.575000000000001" r="2.515" fill="#000000"/><circle cx="113.205" cy="12.575000000000001" r="2.515" fill="#000000"/><circle cx="138.36499999999998" cy="12.575000000000001" r="2.515" fill="#000000"/><circle cx="163.52499999999998" cy="12.575000000000001" r="2.515" fill="#000000"/><circle cx="188.68499999999997" cy="12.575000000000001" r="2.515" fill="#000000"/><circle cx="213.845" cy="12.575000000000001" r="2.515" fill="#000000"/><circle cx="238.99499999999998" cy="12.575000000000001" r="2.515" fill="#000000"/><circle cx="264.155" cy="12.575000000000001" r="2.515" fill="#000000"/><circle cx="289.315" cy="12.575000000000001" r="2.515" fill="#000000"/><circle cx="314.47499999999997" cy="12.575000000000001" r="2.515" fill="#000000"/><circle cx="339.635" cy="12.575000000000001" r="2.515" fill="#000000"/><circle cx="364.78499999999997" cy="12.575000000000001" r="2.515" fill="#000000"/><circle cx="389.945" cy="12.575000000000001" r="2.515" fill="#000000"/><circle cx="415.10499999999996" cy="12.575000000000001" r="2.515" fill="#000000"/><circle cx="440.265" cy="12.575000000000001" r="2.515" fill="#000000"/><circle cx="465.425" cy="12.575000000000001" r="2.515" fill="#000000"/><circle cx="490.575" cy="12.575000000000001" r="2.515" fill="#000000"/><circle cx="515.735" cy="12.575000000000001" r="2.515" fill="#000000"/><circle cx="540.895" cy="12.575000000000001" r="2.515" fill="#000000"/><circle cx="566.055" cy="12.575000000000001" r="2.515" fill="#000000"/><circle cx="591.205" cy="12.575000000000001" r="2.515" fill="#000000"/><circle cx="616.365" cy="12.575000000000001" r="2.515" fill="#000000"/><circle cx="641.525" cy="12.575000000000001" r="2.515" fill="#000000"/><circle cx="666.685" cy="12.575000000000001" r="2.515" fill="#000000"/><circle cx="691.845" cy="12.575000000000001" r="2.515" fill="#000000"/><circle cx="716.995" cy="12.575000000000001" r="2.515" fill="#000000"/><circle cx="742.155" cy="12.575000000000001" r="2.515" fill="#000000"/><circle cx="767.3149999999999" cy="12.575000000000001" r="2.515" fill="#000000"/><circle cx="792.475" cy="12.575000000000001" r="2.515" fill="#000000"/><circle cx="817.635" cy="12.575000000000001" r="2.515" fill="#000000"/><circle cx="842.785" cy="12.575000000000001" r="2.515" fill="#000000"/><circle cx="867.9449999999999" cy="12.575000000000001" r="2.515" fill="#000000"/><circle cx="893.105" cy="12.575000000000001" r="2.515" fill="#000000"/><circle cx="918.265" cy="12.575000000000001" r="2.515" fill="#000000"/><circle cx="943.425" cy="12.575000000000001" r="2.515" fill="#000000"/><circle cx="12.575000000000001" cy="37.735" r="2.515" fill="#000000"/><circle cx="37.74" cy="37.74" r="2.77" fill="#000000"/><circle cx="62.894999999999996" cy="37.735" r="3.025" fill="#000000"/><circle cx="88.05" cy="37.74" r="3.28" fill="#000000"/><circle cx="113.215" cy="37.735" r="3.535" fill="#000000"/><circle cx="138.365" cy="37.735" r="3.785" fill="#000000"/><circle cx="163.53" cy="37.74" r="4.04" fill="#000000"/><circle cx="188.68499999999997" cy="37.735" r="4.295" fill="#000000"/><circle cx="213.84" cy="37.739999999999995" r="4.55" fill="#000000"/><circle cx="239.005" cy="37.735" r="4.805" fill="#000000"/><circle cx="264.16" cy="37.74" r="5.06" fill="#000000"/><circle cx="289.31" cy="37.730000000000004" r="5.31" fill="#000000"/><circle cx="314.475" cy="37.735" r="5.565" fill="#000000"/><circle cx="339.63" cy="37.74" r="5.82" fill="#000000"/><circle cx="364.78499999999997" cy="37.735" r="6.075" fill="#000000"/><circle cx="389.95" cy="37.74" r="6.33" fill="#000000"/><circle cx="415.1" cy="37.74" r="6.54" fill="#000000"/><circle cx="440.26000000000005" cy="37.74" r="6.54" fill="#000000"/><circle cx="465.42" cy="37.74" r="6.54" fill="#000000"/><circle cx="490.58000000000004" cy="37.74" r="6.54" fill="#000000"/><circle cx="515.74" cy="37.74" r="6.54" fill="#000000"/><circle cx="540.89" cy="37.74" r="6.54" fill="#000000"/><circle cx="566.05" cy="37.74" r="6.54" fill="#000000"/><circle cx="591.21" cy="37.74" r="6.33" fill="#000000"/><circle cx="616.365" cy="37.735" r="6.075" fill="#000000"/><circle cx="641.5300000000001" cy="37.74" r="5.82" fill="#000000"/><circle cx="666.6850000000001" cy="37.735" r="5.565" fill="#000000"/><circle cx="691.8399999999999" cy="37.730000000000004" r="5.31" fill="#000000"/><circle cx="717" cy="37.74" r="5.06" fill="#000000"/><circle cx="742.155" cy="37.735" r="4.805" fill="#000000"/><circle cx="767.3199999999999" cy="37.739999999999995" r="4.55" fill="#000000"/><circle cx="792.4749999999999" cy="37.735" r="4.295" fill="#000000"/><circle cx="817.63" cy="37.74" r="4.04" fill="#000000"/><circle cx="842.785" cy="37.735" r="3.785" fill="#000000"/><circle cx="867.9449999999999" cy="37.735" r="3.535" fill="#000000"/><circle cx="893.11" cy="37.74" r="3.28" fill="#000000"/><circle cx="918.265" cy="37.735" r="3.025" fill="#000000"/><circle cx="943.42" cy="37.74" r="2.77" fill="#000000"/><circle cx="12.575000000000001" cy="62.895" r="2.515" fill="#000000"/><circle cx="37.735" cy="62.894999999999996" r="3.025" fill="#000000"/><circle cx="62.894999999999996" cy="62.894999999999996" r="3.535" fill="#000000"/><circle cx="88.05000000000001" cy="62.89" r="4.04" fill="#000000"/><circle cx="113.21" cy="62.9" r="4.55" fill="#000000"/><circle cx="138.37" cy="62.900000000000006" r="5.06" fill="#000000"/><circle cx="163.525" cy="62.894999999999996" r="5.565" fill="#000000"/><circle cx="188.685" cy="62.895" r="6.075" fill="#000000"/><circle cx="213.845" cy="62.895" r="6.585" fill="#000000"/><circle cx="239" cy="62.89" r="7.09" fill="#000000"/><circle cx="264.16" cy="62.89" r="7.6" fill="#000000"/><circle cx="289.32" cy="62.9" r="8.11" fill="#000000"/><circle cx="314.475" cy="62.895" r="8.615" fill="#000000"/><circle cx="339.635" cy="62.895" r="9.125" fill="#000000"/><circle cx="364.795" cy="62.894999999999996" r="9.635" fill="#000000"/><circle cx="389.945" cy="62.894999999999996" r="10.145" fill="#000000"/><circle cx="415.105" cy="62.894999999999996" r="10.565" fill="#000000"/><circle cx="440.265" cy="62.894999999999996" r="10.565" fill="#000000"/><circle cx="465.415" cy="62.894999999999996" r="10.565" fill="#000000"/><circle cx="490.575" cy="62.894999999999996" r="10.565" fill="#000000"/><circle cx="515.735" cy="62.894999999999996" r="10.565" fill="#000000"/><circle cx="540.8950000000001" cy="62.894999999999996" r="10.565" fill="#000000"/><circle cx="566.0550000000001" cy="62.894999999999996" r="10.565" fill="#000000"/><circle cx="591.215" cy="62.894999999999996" r="10.145" fill="#000000"/><circle cx="616.365" cy="62.894999999999996" r="9.635" fill="#000000"/><circle cx="641.525" cy="62.895" r="9.125" fill="#000000"/><circle cx="666.6850000000001" cy="62.895" r="8.615" fill="#000000"/><circle cx="691.84" cy="62.9" r="8.11" fill="#000000"/><circle cx="717" cy="62.89" r="7.6" fill="#000000"/><circle cx="742.1600000000001" cy="62.89" r="7.09" fill="#000000"/><circle cx="767.315" cy="62.895" r="6.585" fill="#000000"/><circle cx="792.475" cy="62.895" r="6.075" fill="#000000"/><circle cx="817.6350000000001" cy="62.894999999999996" r="5.565" fill="#000000"/><circle cx="842.79" cy="62.900000000000006" r="5.06" fill="#000000"/><circle cx="867.9499999999999" cy="62.9" r="4.55" fill="#000000"/><circle cx="893.0999999999999" cy="62.89" r="4.04" fill="#000000"/><circle cx="918.265" cy="62.894999999999996" r="3.535" fill="#000000"/><circle cx="943.425" cy="62.894999999999996" r="3.025" fill="#000000"/><circle cx="12.575000000000001" cy="88.055" r="2.515" fill="#000000"/><circle cx="37.74" cy="88.05000000000001" r="3.15" fill="#000000"/><circle cx="62.894999999999996" cy="88.05499999999999" r="3.785" fill="#000000"/><circle cx="88.05" cy="88.05" r="4.42" fill="#000000"/><circle cx="113.21000000000001" cy="88.05" r="5.06" fill="#000000"/><circle cx="138.36499999999998" cy="88.055" r="5.695" fill="#000000"/><circle cx="163.53" cy="88.05" r="6.33" fill="#000000"/><circle cx="188.685" cy="88.055" r="6.965" fill="#000000"/><circle cx="213.84" cy="88.05" r="7.6" fill="#000000"/><circle cx="238.995" cy="88.05499999999999" r="8.235" fill="#000000"/><circle cx="264.15999999999997" cy="88.05000000000001" r="8.87" fill="#000000"/><circle cx="289.315" cy="88.05499999999999" r="9.505" fill="#000000"/><circle cx="314.47499999999997" cy="88.05499999999999" r="10.145" fill="#000000"/><circle cx="339.63" cy="88.05" r="10.78" fill="#000000"/><circle cx="364.795" cy="88.055" r="11.415" fill="#000000"/><circle cx="389.95" cy="88.05" r="12.05" fill="#000000"/><circle cx="415.10999999999996" cy="88.05" r="12.58" fill="#000000"/><circle cx="440.26" cy="88.05" r="12.58" fill="#000000"/><circle cx="465.41999999999996" cy="88.05" r="12.58" fill="#000000"/><circle cx="490.58" cy="88.05" r="12.58" fill="#000000"/><circle cx="515.74" cy="88.05" r="12.58" fill="#000000"/><circle cx="540.9000000000001" cy="88.05" r="12.58" fill="#000000"/><circle cx="566.0500000000001" cy="88.05" r="12.58" fill="#000000"/><circle cx="591.2099999999999" cy="88.05" r="12.05" fill="#000000"/><circle cx="616.365" cy="88.055" r="11.415" fill="#000000"/><circle cx="641.53" cy="88.05" r="10.78" fill="#000000"/><circle cx="666.685" cy="88.05499999999999" r="10.145" fill="#000000"/><circle cx="691.845" cy="88.05499999999999" r="9.505" fill="#000000"/><circle cx="717" cy="88.05000000000001" r="8.87" fill="#000000"/><circle cx="742.155" cy="88.05499999999999" r="8.235" fill="#000000"/><circle cx="767.32" cy="88.05" r="7.6" fill="#000000"/><circle cx="792.475" cy="88.055" r="6.965" fill="#000000"/><circle cx="817.63" cy="88.05" r="6.33" fill="#000000"/><circle cx="842.7950000000001" cy="88.055" r="5.695" fill="#000000"/><circle cx="867.9499999999999" cy="88.05" r="5.06" fill="#000000"/><circle cx="893.0999999999999" cy="88.05" r="4.42" fill="#000000"/><circle cx="918.265" cy="88.05499999999999" r="3.785" fill="#000000"/><circle cx="943.42" cy="88.05000000000001" r="3.15" fill="#000000"/><circle cx="12.575000000000001" cy="113.205" r="2.515" fill="#000000"/><circle cx="37.735" cy="113.215" r="3.025" fill="#000000"/><circle cx="62.894999999999996" cy="113.215" r="3.535" fill="#000000"/><circle cx="88.05000000000001" cy="113.21000000000001" r="4.04" fill="#000000"/><circle cx="113.21" cy="113.21" r="4.55" fill="#000000"/><circle cx="138.37" cy="113.21000000000001" r="5.06" fill="#000000"/><circle cx="163.525" cy="113.205" r="5.565" fill="#000000"/><circle cx="188.685" cy="113.215" r="6.075" fill="#000000"/><circle cx="213.845" cy="113.21499999999999" r="6.585" fill="#000000"/><circle cx="239" cy="113.21000000000001" r="7.09" fill="#000000"/><circle cx="264.16" cy="113.21" r="7.6" fill="#000000"/><circle cx="289.32" cy="113.21" r="8.11" fill="#000000"/><circle cx="314.475" cy="113.205" r="8.615" fill="#000000"/><circle cx="339.635" cy="113.205" r="9.125" fill="#000000"/><circle cx="364.795" cy="113.215" r="9.635" fill="#000000"/><circle cx="389.945" cy="113.21499999999999" r="10.145" fill="#000000"/><circle cx="415.105" cy="113.205" r="10.565" fill="#000000"/><circle cx="440.265" cy="113.205" r="10.565" fill="#000000"/><circle cx="465.415" cy="113.205" r="10.565" fill="#000000"/><circle cx="490.575" cy="113.205" r="10.565" fill="#000000"/><circle cx="515.735" cy="113.205" r="10.565" fill="#000000"/><circle cx="540.8950000000001" cy="113.205" r="10.565" fill="#000000"/><circle cx="566.0550000000001" cy="113.205" r="10.565" fill="#000000"/><circle cx="591.215" cy="113.21499999999999" r="10.145" fill="#000000"/><circle cx="616.365" cy="113.215" r="9.635" fill="#000000"/><circle cx="641.525" cy="113.205" r="9.125" fill="#000000"/><circle cx="666.6850000000001" cy="113.205" r="8.615" fill="#000000"/><circle cx="691.84" cy="113.21" r="8.11" fill="#000000"/><circle cx="717" cy="113.21" r="7.6" fill="#000000"/><circle cx="742.1600000000001" cy="113.21000000000001" r="7.09" fill="#000000"/><circle cx="767.315" cy="113.21499999999999" r="6.585" fill="#000000"/><circle cx="792.475" cy="113.215" r="6.075" fill="#000000"/><circle cx="817.6350000000001" cy="113.205" r="5.565" fill="#000000"/><circle cx="842.79" cy="113.21000000000001" r="5.06" fill="#000000"/><circle cx="867.9499999999999" cy="113.21" r="4.55" fill="#000000"/><circle cx="893.0999999999999" cy="113.21000000000001" r="4.04" fill="#000000"/><circle cx="918.265" cy="113.215" r="3.535" fill="#000000"/><circle cx="943.425" cy="113.215" r="3.025" fill="#000000"/><circle cx="12.575000000000001" cy="138.36499999999998" r="2.515" fill="#000000"/><circle cx="37.74" cy="138.37" r="2.77" fill="#000000"/><circle cx="62.894999999999996" cy="138.365" r="3.025" fill="#000000"/><circle cx="88.05" cy="138.37" r="3.28" fill="#000000"/><circle cx="113.215" cy="138.375" r="3.535" fill="#000000"/><circle cx="138.365" cy="138.365" r="3.785" fill="#000000"/><circle cx="163.53" cy="138.37" r="4.04" fill="#000000"/><circle cx="188.68499999999997" cy="138.36499999999998" r="4.295" fill="#000000"/><circle cx="213.84" cy="138.37" r="4.55" fill="#000000"/><circle cx="239.005" cy="138.365" r="4.805" fill="#000000"/><circle cx="264.16" cy="138.37" r="5.06" fill="#000000"/><circle cx="289.31" cy="138.37" r="5.31" fill="#000000"/><circle cx="314.475" cy="138.365" r="5.565" fill="#000000"/><circle cx="339.63" cy="138.37" r="5.82" fill="#000000"/><circle cx="364.78499999999997" cy="138.36499999999998" r="6.075" fill="#000000"/><circle cx="389.95" cy="138.37" r="6.33" fill="#000000"/><circle cx="415.1" cy="138.37" r="6.54" fill="#000000"/><circle cx="440.26000000000005" cy="138.37" r="6.54" fill="#000000"/><circle cx="465.42" cy="138.37" r="6.54" fill="#000000"/><circle cx="490.58000000000004" cy="138.37" r="6.54" fill="#000000"/><circle cx="515.74" cy="138.37" r="6.54" fill="#000000"/><circle cx="540.89" cy="138.37" r="6.54" fill="#000000"/><circle cx="566.05" cy="138.37" r="6.54" fill="#000000"/><circle cx="591.21" cy="138.37" r="6.33" fill="#000000"/><circle cx="616.365" cy="138.36499999999998" r="6.075" fill="#000000"/><circle cx="641.5300000000001" cy="138.37" r="5.82" fill="#000000"/><circle cx="666.6850000000001" cy="138.365" r="5.565" fill="#000000"/><circle cx="691.8399999999999" cy="138.37" r="5.31" fill="#000000"/><circle cx="717" cy="138.37" r="5.06" fill="#000000"/><circle cx="742.155" cy="138.365" r="4.805" fill="#000000"/><circle cx="767.3199999999999" cy="138.37" r="4.55" fill="#000000"/><circle cx="792.4749999999999" cy="138.36499999999998" r="4.295" fill="#000000"/><circle cx="817.63" cy="138.37" r="4.04" fill="#000000"/><circle cx="842.785" cy="138.365" r="3.785" fill="#000000"/><circle cx="867.9449999999999" cy="138.375" r="3.535" fill="#000000"/><circle cx="893.11" cy="138.37" r="3.28" fill="#000000"/><circle cx="918.265" cy="138.365" r="3.025" fill="#000000"/><circle cx="943.42" cy="138.37" r="2.77" fill="#000000"/></g></svg>